<svg width="99" height="99" viewBox="0 0 99 99" fill="none" xmlns="http://www.w3.org/2000/svg">
<g filter="url(#filter0_d_74_82)">
<rect x="4.5" y="2.5" width="90" height="90" rx="45" fill="white"/>
<path fill-rule="evenodd" clip-rule="evenodd" d="M49.0657 25.5842C47.284 25.9698 45.8047 27.425 45.3796 29.2103C45.0503 30.5934 45.4368 32.4246 46.2484 33.3268C46.9077 34.0599 47.7984 34.3831 49.6125 34.5478C50.4263 34.6217 51.2437 34.477 51.5087 34.2121C51.6773 34.0436 51.6875 33.9601 51.632 33.2111C51.5986 32.7617 51.539 32.1519 51.4993 31.8559C51.4149 31.2253 51.4994 30.84 51.78 30.5765C52.1421 30.2365 52.9715 29.9271 53.946 29.7687C54.6651 29.6517 54.8971 29.5811 54.8958 29.4794C54.8923 29.208 54.4569 28.117 54.1801 27.6858C53.5194 26.6566 52.3181 25.8392 51.0845 25.5792C50.3186 25.4178 49.829 25.4189 49.0657 25.5842ZM53.6381 30.1968C52.8166 30.3646 52.2645 30.6016 51.9909 30.9041C51.8369 31.0743 51.8282 31.1674 51.8992 31.8776C51.9425 32.3096 51.9787 33.0353 51.9798 33.4903C51.9815 34.2 51.9563 34.3427 51.8023 34.4953C51.5794 34.7161 50.7026 34.9501 50.1011 34.9494C49.6694 34.9489 48.1893 34.7536 47.6573 34.6268L47.4057 34.5669L47.6749 34.8571C48.9356 36.216 51.2019 36.52 52.8546 35.5519C54.0276 34.8649 54.8979 33.3159 54.8979 31.9152C54.8979 31.4579 54.6973 30.5818 54.516 30.2465L54.4044 30.0402L53.6381 30.1968ZM46.4745 36.217C45.1925 36.4297 43.9755 37.4036 43.3331 38.7309C42.886 39.6543 42.2417 41.871 41.9688 43.4249C41.6076 45.4803 41.7102 49.223 42.1648 50.5831C42.5372 51.697 43.1974 52.4232 44.1677 52.786C44.43 52.8841 46.3296 53.2244 48.4882 53.5599C50.6071 53.8893 52.3451 54.1651 52.3505 54.1728C52.3559 54.1805 52.9565 55.7001 53.6853 57.5498C55.1909 61.3717 55.1393 61.2573 55.5407 61.6667C56.1498 62.2881 57.2724 62.5243 58.0448 62.1937C58.8943 61.8299 59.4715 60.9554 59.473 60.0297C59.4738 59.5599 59.3005 59.0653 57.8074 55.2766C56.8908 52.9508 56.0574 50.9128 55.9554 50.7478C55.7255 50.376 55.1548 49.9544 54.727 49.8402C54.5495 49.7929 53.2133 49.5705 51.7574 49.3459C50.3016 49.1214 48.9732 48.9125 48.8055 48.8817L48.5006 48.8258L48.5653 47.5602C48.6008 46.8642 48.6784 45.9517 48.7377 45.5324L48.8455 44.7702L47.8116 43.7373C46.3864 42.3136 45.1456 40.5016 44.9823 39.6053C44.8485 38.8709 45.2773 38.078 46.0087 37.7077C47.0458 37.1825 47.9274 37.5306 48.6279 38.7418C49.1394 39.6261 49.6032 40.2523 49.7016 40.1914C49.8271 40.114 49.7968 38.9091 49.6561 38.3808C49.3882 37.3752 48.8274 36.6233 48.1361 36.3429C47.7288 36.1777 47.03 36.1248 46.4745 36.217ZM46.3455 37.9497C45.334 38.3103 45.0817 39.266 45.7 40.3943C47.1658 43.0689 49.6259 45.2092 52.3645 46.1924C53.7601 46.6935 56.3029 47.0166 57.1145 46.7961C58.1187 46.5233 58.5859 45.5326 58.1308 44.6411C57.8159 44.0242 57.4797 43.8952 55.9822 43.8164C54.0166 43.713 52.942 43.3779 51.4997 42.4188C50.1802 41.5412 49.2943 40.5546 48.1235 38.6592C47.9398 38.3616 47.7274 38.1593 47.454 38.0216C46.9957 37.7906 46.8234 37.7793 46.3455 37.9497ZM26.5893 39.8677L26.5408 52.273L26.8396 52.5716C27.0532 52.785 27.2522 52.8867 27.5368 52.9278C27.7559 52.9595 30.5614 52.9732 33.7714 52.9583C39.247 52.9329 39.6231 52.9211 39.8578 52.7673C40.3687 52.4326 40.3622 52.5181 40.3622 46.1154C40.3622 39.7953 40.3635 39.8129 39.9031 39.4907C39.7149 39.3588 39.0765 39.3444 33.4347 39.3444H27.1754L26.5893 39.8677ZM62.7489 43.9533C61.9892 44.1922 61.3804 44.6979 61.0165 45.3923C60.8107 45.7846 60.7782 45.9559 60.7766 46.6535C60.7752 47.3181 60.8115 47.535 60.9825 47.8817C61.4218 48.7732 62.3202 49.3944 63.2693 49.463C63.7451 49.4975 63.816 49.4783 64.0533 49.2509C64.9928 48.3514 64.9143 44.6501 63.9414 43.9689C63.7041 43.8028 63.2467 43.7968 62.7489 43.9533ZM58.6664 45.6526C58.6664 45.9164 58.3341 46.477 58.0084 46.7628C57.5467 47.1681 56.9692 47.2731 55.6004 47.2009C54.4923 47.1424 54.4492 47.1468 54.4492 47.3177C54.4492 47.5979 54.8192 47.9546 55.167 48.0097C55.4016 48.047 55.7288 47.9666 56.4598 47.6921C56.9982 47.4899 57.4458 47.335 57.4547 47.3478C57.4636 47.3605 58.3903 50.0593 59.5139 53.3451C60.6376 56.6309 61.5902 59.3732 61.6309 59.439C61.6867 59.5293 61.8112 59.4594 62.1372 59.1546C62.3749 58.9324 62.8191 58.6043 63.1242 58.4256C65.9245 56.7853 69.459 57.408 71.4701 59.8958C71.8825 60.4059 72.0029 60.5035 72.1596 60.4546C72.5536 60.3319 72.5588 59.9694 72.176 59.3171C71.0031 57.3187 68.8412 56.0163 66.459 55.8729L65.593 55.8208L65.2281 54.8692C64.4232 52.7708 63.0359 51.2489 60.9135 50.1356L60.2591 49.7923L59.5583 47.74C58.9016 45.8167 58.6664 45.2662 58.6664 45.6526ZM30.7821 54.0226C30.7194 54.0478 30.6083 54.1839 30.5353 54.325C30.3687 54.6469 30.3469 56.7397 30.507 57.0401C30.6407 57.2909 30.8537 57.4537 31.0531 57.4573C31.2566 57.461 31.2525 57.5044 30.9869 58.1577C30.0295 60.5127 29.2387 63.5106 29.2369 64.7917L29.2362 65.2625H32.3332L32.3325 64.0742C32.3318 63.078 32.3657 62.7771 32.5419 62.2133C32.9829 60.8016 33.7981 59.6116 34.8595 58.8301C35.9015 58.0627 36.8294 57.6952 38.0804 57.5543C41.2367 57.1987 44.2389 59.2722 45.086 62.3927C45.1997 62.8114 45.2433 63.2976 45.2408 64.119L45.2374 65.2625H60.0723L59.9914 64.702C59.9469 64.3937 59.9346 63.8893 59.9639 63.581L60.0173 63.0204H48.0955L47.8056 62.3254C47.2328 60.9517 46.808 59.3464 46.6798 58.0713C46.6213 57.4892 46.627 57.4654 46.878 57.2496L47.1366 57.0273V55.7263C47.1366 54.4729 47.1286 54.417 46.9191 54.194L46.7015 53.9626L38.7988 53.9696C34.4523 53.9735 30.8448 53.9974 30.7821 54.0226ZM37.4663 58.5871C36.3629 58.8544 35.2185 59.579 34.4915 60.471C32.38 63.0618 32.9852 66.8539 35.8005 68.6726C36.6979 69.2524 37.6138 69.5082 38.792 69.5082C39.619 69.5082 39.8953 69.4697 40.4968 69.2707C42.3028 68.6731 43.7136 67.142 44.184 65.2686C44.3875 64.4585 44.3229 63.0017 44.0486 62.2133C43.4266 60.4256 41.9174 59.0544 40.0518 58.5821C39.3961 58.4161 38.1627 58.4184 37.4663 58.5871ZM65.1266 58.5822C64.8552 58.6562 64.2989 58.8804 63.8904 59.0804C62.5263 59.7488 61.4016 61.1694 61.0472 62.6719C60.8732 63.4098 60.8724 64.6304 61.0454 65.3109C61.7683 68.1532 64.6496 70.0072 67.4595 69.4381C69.5464 69.0154 71.0331 67.7019 71.729 65.6661C72.0337 64.7744 72.071 63.4995 71.8195 62.572C71.3439 60.8188 69.9791 59.3489 68.265 58.7442C67.4219 58.4468 65.91 58.3687 65.1266 58.5822ZM39.8495 62.1014C41.1647 62.8169 41.3533 64.6214 40.2171 65.6185C39.7595 66.02 39.385 66.1597 38.7725 66.1573C37.4625 66.1524 36.4869 65.068 36.6213 63.7662C36.7847 62.1841 38.436 61.3325 39.8495 62.1014ZM67.3315 61.9864C68.1506 62.3274 68.6776 63.2205 68.6036 64.1423C68.5535 64.7671 68.3953 65.1205 67.98 65.5356C67.5661 65.9494 67.059 66.155 66.4472 66.1573C65.8347 66.1597 65.4602 66.02 65.0026 65.6185C63.6697 64.4487 64.2218 62.2828 65.964 61.8476C66.3047 61.7625 66.9511 61.8281 67.3315 61.9864Z" fill="#FF9E0C"/>
</g>
<defs>
<filter id="filter0_d_74_82" x="0.313954" y="0.406977" width="98.3721" height="98.3721" filterUnits="userSpaceOnUse" color-interpolation-filters="sRGB">
<feFlood flood-opacity="0" result="BackgroundImageFix"/>
<feColorMatrix in="SourceAlpha" type="matrix" values="0 0 0 0 0 0 0 0 0 0 0 0 0 0 0 0 0 0 127 0" result="hardAlpha"/>
<feOffset dy="2.09302"/>
<feGaussianBlur stdDeviation="2.09302"/>
<feColorMatrix type="matrix" values="0 0 0 0 0 0 0 0 0 0 0 0 0 0 0 0 0 0 0.075 0"/>
<feBlend mode="normal" in2="BackgroundImageFix" result="effect1_dropShadow_74_82"/>
<feBlend mode="normal" in="SourceGraphic" in2="effect1_dropShadow_74_82" result="shape"/>
</filter>
</defs>
</svg>
