<svg width="45" height="46" viewBox="0 0 45 46" fill="none" xmlns="http://www.w3.org/2000/svg">
<g id="Frame 2">
<g id="Group">
<path id="Vector" d="M6.21 44.0772C8.101 44.885 10.0424 44.9888 12.0998 44.9898C19.2726 44.9932 26.4454 44.9932 33.6182 44.9898C34.5421 44.9888 35.3591 44.9199 36.2255 44.7986C38.5187 44.4773 40.4371 43.4636 41.9807 41.7576C43.1263 40.4915 43.8525 39.0945 44.1595 37.5666C44.3842 36.4519 44.4969 35.1676 44.4976 33.7137C44.501 26.595 44.501 19.4764 44.4976 12.3577C44.4966 11.0638 44.4524 10.0248 44.253 8.89536C43.5377 4.8441 40.396 1.80822 36.3283 1.21215C35.4095 1.07786 34.7072 1.01037 34.2215 1.00968C26.6999 1.00694 19.1788 1.00694 11.6579 1.00968C10.5038 1.01071 9.55727 1.07854 8.50489 1.25017C4.40019 1.92127 1.3376 5.04553 0.712744 9.15229C0.580511 10.0197 0.514051 10.773 0.513366 11.4122C0.511996 18.9488 0.507542 26.4854 0.500005 34.022C0.49932 34.875 0.564065 35.7654 0.694242 36.693C1.15158 39.955 3.16179 42.7761 6.21 44.0772Z" stroke="#EB8C8D" stroke-width="0.205543"/>
<path id="Vector_2" d="M24.0635 9.90049C24.1776 9.4966 24.415 9.27153 24.677 8.96424C24.9093 8.6919 24.9042 8.35172 24.6061 8.12768C23.3523 7.18835 21.4171 7.15238 20.1962 8.18009C19.8745 8.45141 19.9639 8.76795 20.2373 9.05262C20.4805 9.30544 20.67 9.59663 20.8056 9.92618C20.8084 9.93238 20.8096 9.93914 20.8092 9.94591C20.8089 9.95269 20.8069 9.95932 20.8036 9.96527C20.8002 9.97123 20.7955 9.97637 20.7898 9.98028C20.7841 9.9842 20.7775 9.98678 20.7707 9.98785C14.6887 10.7864 9.9365 15.2539 8.68885 21.2465C8.55833 21.8734 8.48639 22.5229 9.09891 22.8323C9.28733 22.9268 9.65045 22.9741 10.1883 22.9741C18.4772 22.9727 26.7664 22.9724 35.056 22.9731C35.3821 22.9731 35.6102 22.948 35.7404 22.898C36.2933 22.6843 36.542 22.1139 36.4362 21.5342C35.2923 15.295 30.3891 10.7484 24.1026 9.95907C24.0669 9.95496 24.0539 9.93543 24.0635 9.90049Z" stroke="#EB8C8D" stroke-width="0.205543"/>
<path id="Vector_3" d="M14.0905 27.9698C11.7638 24.6276 7.0147 27.8588 9.13899 31.1968C15.3639 40.9765 29.5772 41.0824 35.7815 31.2194C36.0528 30.7871 36.2313 30.4308 36.317 30.1506C36.7003 28.8916 36.0898 27.4333 34.9912 26.7992C33.8134 26.1199 32.3736 26.2679 31.3963 27.2308C31.2551 27.3692 31.0307 27.6765 30.7231 28.1527C30.0777 29.1523 29.273 30.0111 28.309 30.7292C28.1329 30.8607 27.9582 30.9943 27.7849 31.13C25.6225 32.8298 22.8919 33.3714 20.2404 32.6798C18.7975 32.3036 17.5642 31.4434 16.517 30.6624C15.5345 29.9286 14.8182 29.0139 14.0905 27.9698Z" stroke="#EB8C8D" stroke-width="0.205543"/>
<path id="Vector_4" d="M33.2626 18.1099C31.7015 14.477 28.6101 11.9498 24.7439 11.0064C24.3112 10.9005 24.192 11.3887 24.6051 11.5922C28.1703 13.3496 31.573 16.5046 31.9995 20.6988C32.0489 21.1808 32.163 21.488 32.6809 21.5107C33.4065 21.5425 34.1002 21.3031 33.9676 20.4295C33.8614 19.7286 33.6264 18.9554 33.2626 18.1099Z" stroke="#EB8C8D" stroke-width="0.205543"/>
</g>
<path id="Vector_5" d="M6.21 44.0772C3.16179 42.7761 1.15158 39.955 0.694242 36.693C0.564065 35.7654 0.49932 34.875 0.500005 34.022C0.507542 26.4854 0.511996 18.9488 0.513366 11.4122C0.514051 10.773 0.580511 10.0197 0.712744 9.15229C1.3376 5.04553 4.40019 1.92127 8.50489 1.25017C9.55727 1.07854 10.5038 1.01071 11.6579 1.00968C19.1788 1.00694 26.6999 1.00694 34.2215 1.00968C34.7072 1.01037 35.4095 1.07786 36.3283 1.21215C40.396 1.80822 43.5377 4.8441 44.253 8.89536C44.4524 10.0248 44.4966 11.0638 44.4976 12.3577C44.501 19.4764 44.501 26.595 44.4976 33.7137C44.4969 35.1676 44.3842 36.4519 44.1595 37.5666C43.8525 39.0945 43.1263 40.4915 41.9807 41.7576C40.4371 43.4636 38.5187 44.4773 36.2255 44.7986C35.3591 44.9199 34.5421 44.9888 33.6182 44.9898C26.4454 44.9932 19.2726 44.9932 12.0998 44.9898C10.0424 44.9888 8.101 44.885 6.21 44.0772ZM24.0635 9.90046C24.1776 9.49657 24.415 9.2715 24.677 8.96421C24.9093 8.69187 24.9042 8.35169 24.6061 8.12765C23.3523 7.18832 21.4171 7.15235 20.1962 8.18007C19.8745 8.45138 19.9639 8.76792 20.2373 9.0526C20.4805 9.30542 20.67 9.5966 20.8056 9.92616C20.8084 9.93236 20.8096 9.93911 20.8092 9.94589C20.8089 9.95266 20.8069 9.95929 20.8036 9.96525C20.8002 9.97121 20.7955 9.97634 20.7898 9.98026C20.7841 9.98417 20.7775 9.98676 20.7707 9.98782C14.6887 10.7864 9.9365 15.2538 8.68885 21.2465C8.55833 21.8734 8.48639 22.5229 9.09891 22.8322C9.28732 22.9268 9.65045 22.9741 10.1883 22.9741C18.4772 22.9727 26.7664 22.9723 35.056 22.973C35.3821 22.973 35.6102 22.948 35.7404 22.898C36.2933 22.6842 36.542 22.1139 36.4362 21.5342C35.2923 15.2949 30.3891 10.7483 24.1025 9.95904C24.0669 9.95493 24.0539 9.93541 24.0635 9.90046ZM14.0905 27.9698C11.7638 24.6276 7.0147 27.8588 9.13899 31.1968C15.3639 40.9766 29.5772 41.0824 35.7815 31.2194C36.0528 30.7871 36.2313 30.4308 36.317 30.1506C36.7003 28.8916 36.0898 27.4333 34.9912 26.7992C33.8134 26.1199 32.3736 26.2679 31.3963 27.2309C31.2551 27.3693 31.0307 27.6765 30.7231 28.1527C30.0777 29.1523 29.273 30.0112 28.309 30.7292C28.1329 30.8607 27.9582 30.9944 27.7849 31.13C25.6225 32.8299 22.8919 33.3715 20.2404 32.6798C18.7975 32.3037 17.5642 31.4435 16.517 30.6624C15.5345 29.9286 14.8182 29.0139 14.0905 27.9698Z" fill="#F03328"/>
<path id="Vector_6" d="M24.1026 9.95907C30.3891 10.7484 35.2923 15.295 36.4362 21.5342C36.542 22.1139 36.2933 22.6843 35.7404 22.898C35.6102 22.948 35.3821 22.9731 35.056 22.9731C26.7664 22.9724 18.4772 22.9727 10.1883 22.9741C9.65045 22.9741 9.28733 22.9268 9.09891 22.8323C8.48639 22.5229 8.55833 21.8734 8.68885 21.2465C9.9365 15.2539 14.6887 10.7864 20.7707 9.98785C20.7775 9.98678 20.7841 9.9842 20.7898 9.98028C20.7955 9.97637 20.8002 9.97123 20.8036 9.96527C20.8069 9.95932 20.8089 9.95269 20.8092 9.94591C20.8096 9.93914 20.8084 9.93238 20.8056 9.92618C20.67 9.59663 20.4805 9.30544 20.2373 9.05262C19.9639 8.76795 19.8745 8.45141 20.1962 8.18009C21.4171 7.15238 23.3523 7.18835 24.6061 8.12768C24.9042 8.35172 24.9093 8.6919 24.677 8.96424C24.415 9.27153 24.1776 9.4966 24.0635 9.90049C24.0539 9.93543 24.0669 9.95496 24.1026 9.95907ZM33.2626 18.1099C31.7015 14.4769 28.6101 11.9498 24.7439 11.0063C24.3112 10.9005 24.192 11.3886 24.6051 11.5921C28.1703 13.3495 31.573 16.5046 31.9995 20.6987C32.0489 21.1807 32.1629 21.488 32.6809 21.5106C33.4065 21.5425 34.1002 21.303 33.9676 20.4295C33.8614 19.7285 33.6264 18.9554 33.2626 18.1099Z" fill="#F8F8F8"/>
<path id="Vector_7" d="M33.2626 18.1099C33.6264 18.9554 33.8614 19.7286 33.9676 20.4295C34.1002 21.3031 33.4065 21.5425 32.6809 21.5107C32.163 21.488 32.0489 21.1808 31.9995 20.6988C31.573 16.5046 28.1703 13.3496 24.6051 11.5922C24.192 11.3887 24.3112 10.9005 24.7439 11.0064C28.6101 11.9498 31.7015 14.477 33.2626 18.1099Z" fill="#FF9E0C"/>
<path id="Vector_8" d="M9.13899 31.1969C7.0147 27.8589 11.7638 24.6278 14.0905 27.9699C14.8182 29.0141 15.5345 29.9287 16.517 30.6625C17.5642 31.4436 18.7975 32.3038 20.2404 32.6799C22.8919 33.3716 25.6225 32.83 27.7849 31.1301C27.9582 30.9945 28.1329 30.8609 28.309 30.7293C29.273 30.0113 30.0777 29.1525 30.7231 28.1528C31.0307 27.6767 31.2551 27.3694 31.3963 27.231C32.3736 26.268 33.8134 26.12 34.9912 26.7993C36.0898 27.4334 36.7003 28.8918 36.317 30.1507C36.2313 30.4309 36.0528 30.7872 35.7815 31.2195C29.5772 41.0825 15.3639 40.9767 9.13899 31.1969Z" fill="#F8F8F8"/>
</g>
</svg>
